<?xml version="1.0" encoding="UTF-8" standalone="no"?>


<svg
   xmlns:dc="http://purl.org/dc/elements/1.1/"
   xmlns:cc="http://creativecommons.org/ns#"
   xmlns:rdf="http://www.w3.org/1999/02/22-rdf-syntax-ns#"
   xmlns:svg="http://www.w3.org/2000/svg"
   xmlns="http://www.w3.org/2000/svg"
   xmlns:sodipodi="http://sodipodi.sourceforge.net/DTD/sodipodi-0.dtd"
   xmlns:inkscape="http://www.inkscape.org/namespaces/inkscape"
   width="200"
   height="199.99956"
   id="svg2"
   version="1.1"
   inkscape:version="0.48.3.1 r9886"
   sodipodi:docname="Novo documento 1">
  <defs
     id="defs4" />
  <sodipodi:namedview
     id="base"
     pagecolor="#ffffff"
     bordercolor="#666666"
     borderopacity="1.0"
     inkscape:pageopacity="0.0"
     inkscape:pageshadow="2"
     inkscape:zoom="0.7"
     inkscape:cx="11.381539"
     inkscape:cy="-29.750248"
     inkscape:document-units="px"
     inkscape:current-layer="layer1"
     showgrid="false"
     fit-margin-top="0"
     fit-margin-left="0"
     fit-margin-right="0"
     fit-margin-bottom="0"
     inkscape:window-width="1440"
     inkscape:window-height="876"
     inkscape:window-x="0"
     inkscape:window-y="24"
     inkscape:window-maximized="1" />
  <metadata
     id="metadata7">
    <rdf:RDF>
      <cc:Work
         rdf:about="">
        <dc:format>image/svg+xml</dc:format>
        <dc:type
           rdf:resource="http://purl.org/dc/dcmitype/StillImage" />
        <dc:title></dc:title>
      </cc:Work>
    </rdf:RDF>
  </metadata>
  <g
     inkscape:label="Camada 1"
     inkscape:groupmode="layer"
     id="layer1"
     transform="translate(-156.81693,-123.21108)">
    <path
       style="fill:#0c65fd;fill-opacity:1;stroke:none"
       d="m 251.97115,144.4673 0,-0.0947 -12.49144,23.18398 0,0.003 -4.37172,8.0386 -0.014,0.006 -24.72836,45.38423 -31.26774,0 0.38319,0.15104 c -7.22344,0.15362 -7.21843,0.12479 -22.66415,-0.15104 l 9.41425,3.86253 10.49764,5.30046 c 31.95182,19.55952 31.51832,19.54081 75.2423,41.01811 l 0,31.81596 c -0.0962,11.41553 0.1173,11.40964 0,20.22516 l 8.95881,-17.90085 0.22376,0.006 40.95937,-75.16397 33.04944,0 c 6.47366,0.1355 14.65125,0 21.65443,0 l -19.27986,-9.15495 -0.006,-0.008 -76.37787,-41.62506 0,-56.15272 z m -0.18744,19.08642 0.18744,21.25202 0,36.18208 -31.15027,0 z m 9.37001,26.26425 57.20998,31.16985 -57.20998,0 z m -45.3255,40.33285 36.14293,0 0,30.54332 -57.15125,-30.57409 z m 45.3255,0 30.50416,0 -30.50416,55.9765 0,-19.97063 0.19579,-0.35242 -0.19579,-0.0979 z"
       id="rect3510"
       inkscape:connector-curvature="0"
       sodipodi:nodetypes="cccccccccccccccccccccccccccccccccccccccccccccc" />
  </g>
</svg>
